<svg width="311" height="200" viewBox="0 0 311 200" fill="none" xmlns="http://www.w3.org/2000/svg">
<ellipse cx="155.5" cy="158.5" rx="155.5" ry="41.5" fill="#28683E" fill-opacity="0.2"/>
<path d="M160.215 0C112.969 0 108.805 36.1327 102.282 59.2474C72.3926 58.9337 44 70.7851 44 102.732C44 131.827 67.9878 155.475 100.478 155.991V156H219.952V155.991C252.443 155.475 271 131.827 271 102.732C271 70.7851 248.038 58.9337 218.149 59.2474C211.625 36.1327 207.462 0 160.215 0Z" fill="#28683E"/>
<path d="M84.3062 78C52.878 78 50.1083 102.088 45.769 117.498C25.8867 117.289 7 125.19 7 146.488C7 165.885 22.9566 181.65 44.5694 181.994V182H124.043V181.994C145.656 181.65 158 165.885 158 146.488C158 125.19 142.726 117.289 122.843 117.498C118.504 102.088 115.734 78 84.3062 78Z" fill="#65D58C"/>
</svg>
