<svg width="311" height="162" viewBox="0 0 311 162" fill="none" xmlns="http://www.w3.org/2000/svg">
<ellipse cx="155.5" cy="120.5" rx="155.5" ry="41.5" fill="#28683E" fill-opacity="0.2"/>
<path d="M194.306 0C162.878 0 160.108 24.0885 155.769 39.4983C135.887 39.2891 117 47.19 117 68.4878C117 87.885 132.957 103.65 154.569 103.994V104H234.043V103.994C255.656 103.65 268 87.885 268 68.4878C268 47.19 252.726 39.2891 232.843 39.4983C228.504 24.0885 225.734 0 194.306 0Z" fill="#28683E"/>
<path d="M119 0C75.5 0 71.6665 33.2375 65.6604 54.5C38.1412 54.2114 12 65.1132 12 94.5C12 121.264 34.0857 143.017 64 143.492V143.5H174V143.492C203.914 143.017 221 121.264 221 94.5C221 65.1132 199.859 54.2114 172.34 54.5C166.333 33.2375 162.5 0 119 0Z" fill="#65D58C"/>
</svg>
