<svg width="188" height="178" viewBox="0 0 188 178" fill="none" xmlns="http://www.w3.org/2000/svg">
<path d="M143.842 84.6899C151.893 114.736 133.986 145.64 103.845 153.717C73.7039 161.793 42.7434 143.983 34.6926 113.936C26.6417 83.8903 36.434 22.6995 66.5748 14.6233C96.7156 6.54709 135.791 54.6437 143.842 84.6899Z" fill="#FFC65A"/>
<path fill-rule="evenodd" clip-rule="evenodd" d="M145.767 98.7439C145.724 94.0985 145.1 89.3837 143.842 84.6899C142.238 78.7019 139.401 71.997 135.648 65.1627L32.7498 103.54C33.1988 107.284 33.8473 110.782 34.6926 113.936C36.9317 122.293 40.943 129.703 46.2158 135.873L145.767 98.7439Z" fill="white"/>
<path d="M97.4941 127.983C113.772 123.622 123.447 106.899 119.086 90.622C114.725 74.3448 97.9843 64.7002 81.7062 69.0619C65.428 73.4237 55.7528 90.1463 60.1143 106.423C64.4757 122.701 81.2159 132.345 97.4941 127.983Z" fill="#FD1015" stroke="white" stroke-width="13"/>
<path d="M78.8886 107.723C78.9048 107.863 78.8162 107.998 78.6758 108.036C78.672 108.037 78.6682 108.038 78.6644 108.039L77.8256 108.263C77.6712 108.305 77.5125 108.213 77.4712 108.059L77.3215 107.501C77.2801 107.346 77.3718 107.188 77.5263 107.146L76.5533 103.515C76.512 103.361 76.6037 103.202 76.7581 103.161L98.2911 97.3914C99.7856 96.9909 101.302 97.2823 102.5 98.0691C102.591 98.1284 102.707 98.2138 102.85 98.3255C102.993 98.4377 103.181 98.476 103.357 98.4289L103.651 98.3501C103.858 98.2946 104.135 98.2204 104.481 98.1277C104.789 98.0461 105.105 98.229 105.188 98.5369L105.637 100.213C105.72 100.521 105.536 100.838 105.227 100.921L103.27 101.446C103.266 101.447 103.263 101.448 103.259 101.449C103.104 101.49 102.946 101.399 102.904 101.244C102.301 99.562 100.496 98.5967 98.7371 99.068C96.9782 99.5393 95.8976 101.278 96.2165 103.036C96.2578 103.191 96.1661 103.349 96.0117 103.391C96.0079 103.392 96.004 103.393 96.0002 103.393L85.9343 106.091C85.7799 106.132 85.6212 106.041 85.5799 105.886L85.5684 105.889C84.9653 104.207 83.1602 103.242 81.4013 103.713C79.6424 104.184 78.5618 105.923 78.8807 107.681C78.8807 107.682 78.8809 107.683 78.881 107.683C78.8834 107.697 78.886 107.71 78.8886 107.723ZM104.105 96.7317C104.146 96.8859 104.054 97.0445 103.9 97.0859L103.46 97.2037C103.381 97.2251 103.295 97.2114 103.226 97.166C102.988 97.0092 102.801 96.8946 102.667 96.8221C101.287 96.0758 99.6283 95.8356 97.9917 96.2741L76.4588 102.044C76.3043 102.085 76.1456 101.994 76.1043 101.84L74.3632 95.3418C74.0274 94.0883 74.6673 92.7787 75.8634 92.2717C79.4766 90.7401 82.9405 89.5303 86.255 88.6421C92.1728 87.0565 94.5997 86.9105 97.1416 87.5212C98.6894 87.8931 100.448 89.3217 102.417 91.8068C102.784 92.2706 103.053 92.8047 103.206 93.3761L104.105 96.7317ZM76.254 102.398L76.254 102.398L76.4037 102.957L76.4037 102.957L76.254 102.398ZM75.9858 94.6867C75.8314 94.7281 75.7397 94.8867 75.7811 95.0409L76.9036 99.2305C76.945 99.3847 77.1037 99.4762 77.2581 99.4349L81.4522 98.311C81.6067 98.2697 81.6983 98.1111 81.657 97.9568L80.5344 93.7673C80.4931 93.613 80.3344 93.5215 80.18 93.5629L75.9858 94.6867ZM87.7294 91.54C87.575 91.5814 87.4833 91.74 87.5247 91.8942L88.6473 96.0838C88.6886 96.238 88.8473 96.3295 89.0017 96.2882L93.1959 95.1643C93.3503 95.123 93.442 94.9644 93.4006 94.8101L92.2781 90.6206C92.2367 90.4663 92.078 90.3748 91.9236 90.4162L87.7294 91.54ZM81.8576 93.1133C81.7032 93.1547 81.6115 93.3133 81.6529 93.4676L82.7755 97.6571C82.8168 97.8114 82.9755 97.9029 83.1299 97.8615L87.3241 96.7377C87.4785 96.6963 87.5702 96.5377 87.5288 96.3835L86.4062 92.1939C86.3649 92.0396 86.2062 91.9481 86.0518 91.9895L81.8576 93.1133ZM93.6013 89.9666C93.4468 90.008 93.3552 90.1666 93.3965 90.3209L94.5191 94.5104C94.5604 94.6647 94.7191 94.7562 94.8735 94.7148L101.321 92.9871C101.356 92.9779 101.388 92.9625 101.417 92.9417C101.546 92.8478 101.575 92.6669 101.481 92.5378C100.961 91.8226 100.41 91.1842 99.8287 90.6227C99.7413 90.5383 99.6591 90.4534 99.5819 90.3681C98.686 89.378 97.3104 88.9728 96.0196 89.3187L93.6013 89.9666V89.9666ZM82.8981 109.299C81.6627 109.63 80.3931 108.898 80.0625 107.664C79.7318 106.43 80.4653 105.161 81.7007 104.83C82.9361 104.499 84.2056 105.231 84.5363 106.465C84.8669 107.699 84.1335 108.968 82.8981 109.299ZM82.5987 108.182C83.2164 108.016 83.5831 107.382 83.4178 106.765C83.2525 106.148 82.6177 105.782 82 105.948C81.3823 106.113 81.0156 106.747 81.1809 107.364C81.3463 107.981 81.981 108.347 82.5987 108.182ZM100.234 104.654C98.9985 104.985 97.729 104.253 97.3983 103.019C97.0677 101.785 97.8011 100.516 99.0365 100.185C100.272 99.8542 101.541 100.586 101.872 101.82C102.203 103.054 101.469 104.323 100.234 104.654ZM99.9346 103.537C100.552 103.371 100.919 102.737 100.754 102.12C100.588 101.503 99.9535 101.137 99.3358 101.302C98.7181 101.468 98.3514 102.102 98.5168 102.719C98.6821 103.336 99.3169 103.702 99.9346 103.537Z" fill="white"/>
<path d="M188 115.5C161.285 115.5 144.971 138.843 137.547 156.657C134.959 162.867 129.879 167.927 123.316 169.404L97.9513 175.111C95.3497 175.696 92.6505 175.696 90.0489 175.111L64.6837 169.404C58.1208 167.927 53.0412 162.867 50.4534 156.657C43.0288 138.843 26.7155 115.5 0 115.5C19.5 114 61.3 108.1 72.5 144.5C72.8333 125.167 61 120.9 35 92.5C52.6667 104.667 94.0001 107.7 94.0001 140.5C94.0001 107.7 129.333 75.1667 147 63C121 91.4 115.167 125.167 115.5 144.5C126.7 108.1 168.5 114 188 115.5Z" fill="#28683E"/>
<ellipse cx="94.5" cy="159.5" rx="68.5" ry="18.5" fill="#28683E" fill-opacity="0.2"/>
</svg>
