<svg width="384" height="239" viewBox="0 0 384 239" fill="none" xmlns="http://www.w3.org/2000/svg">
<ellipse cx="186.5" cy="197.5" rx="155.5" ry="41.5" fill="#28683E" fill-opacity="0.2"/>
<path d="M312.589 92.0083C282.232 83.8741 273.322 106.425 265.142 120.187C245.992 114.839 225.704 117.582 220.191 138.154C215.171 156.89 226.504 176.248 247.291 182.174L247.289 182.18L324.055 202.749L324.056 202.744C345.022 208.005 361.026 195.972 366.046 177.236C371.558 156.664 358.849 145.079 339.591 140.135C339.387 124.127 342.947 100.143 312.589 92.0083Z" fill="#28683E"/>
<path d="M267 87.6774C267 118.784 241.704 144 210.5 144C179.296 144 154 118.784 154 87.6774C154 56.5713 179.296 0 210.5 0C241.704 0 267 56.5713 267 87.6774Z" fill="#FD1015"/>
<path d="M211.026 113C225.398 113 237.052 101.361 237.052 87C237.052 72.6386 225.398 61 211.026 61C196.654 61 185 72.6386 185 87C185 101.361 196.654 113 211.026 113Z" fill="#FD1015" stroke="white" stroke-width="4"/>
<path d="M198.298 93.1148C198.277 93.2543 198.157 93.3614 198.012 93.3614C198.008 93.3614 198.004 93.3613 198 93.3612L197.132 93.3614C196.972 93.3614 196.842 93.232 196.842 93.0723V92.4939C196.842 92.3342 196.972 92.2048 197.132 92.2048L197.132 88.4458C197.132 88.2861 197.261 88.1566 197.421 88.1566H219.714C221.261 88.1566 222.65 88.8306 223.604 89.9007C223.676 89.9813 223.766 90.094 223.875 90.2388C223.985 90.3843 224.156 90.4699 224.338 90.4699H224.643C224.857 90.4699 225.143 90.4699 225.502 90.4699C225.821 90.4709 226.079 90.7294 226.079 91.0482V92.7831C226.079 93.1025 225.82 93.3614 225.5 93.3614H223.474C223.47 93.3613 223.466 93.3614 223.462 93.3614C223.302 93.3614 223.173 93.232 223.173 93.0723C223.025 91.2912 221.531 89.8915 219.71 89.8915C217.889 89.8915 216.396 91.2912 216.249 93.0723C216.249 93.232 216.119 93.3614 215.959 93.3614C215.955 93.3614 215.951 93.3613 215.947 93.3612L205.526 93.3614C205.366 93.3614 205.237 93.232 205.237 93.0723H205.225C205.078 91.2912 203.584 89.8915 201.763 89.8915C199.942 89.8915 198.448 91.2912 198.301 93.0723C198.301 93.0729 198.301 93.0734 198.301 93.074C198.3 93.0876 198.299 93.1012 198.298 93.1148ZM225.5 89.0241C225.5 89.1838 225.37 89.3132 225.21 89.3132H224.755C224.673 89.3132 224.594 89.2779 224.539 89.2163C224.349 89.0031 224.199 88.8441 224.088 88.7394C222.947 87.6612 221.408 87 219.714 87H197.421C197.261 87 197.132 86.8705 197.132 86.7108L197.132 79.9839C197.132 78.6862 198.089 77.5868 199.375 77.4067C203.262 76.8625 206.921 76.5903 210.352 76.5903C216.479 76.5903 218.861 77.0774 221.158 78.3253C222.557 79.0851 223.885 80.92 225.144 83.8301C225.379 84.3732 225.5 84.9586 225.5 85.5502V89.0241ZM197.132 87.2891H197.132V87.8674H197.132L197.132 87.2891ZM198.868 79.7711C198.708 79.7711 198.579 79.9005 198.579 80.0602V84.3976C198.579 84.5573 198.708 84.6867 198.868 84.6867H203.21C203.37 84.6867 203.5 84.5573 203.5 84.3976V80.0602C203.5 79.9005 203.37 79.7711 203.21 79.7711H198.868ZM211.026 79.7711C210.866 79.7711 210.737 79.9005 210.737 80.0602V84.3976C210.737 84.5573 210.866 84.6867 211.026 84.6867H215.368C215.528 84.6867 215.658 84.5573 215.658 84.3976V80.0602C215.658 79.9005 215.528 79.7711 215.368 79.7711H211.026ZM204.947 79.7711C204.787 79.7711 204.658 79.9005 204.658 80.0602V84.3976C204.658 84.5573 204.787 84.6867 204.947 84.6867H209.289C209.449 84.6867 209.579 84.5573 209.579 84.3976V80.0602C209.579 79.9005 209.449 79.7711 209.289 79.7711H204.947ZM217.105 79.7711C216.945 79.7711 216.816 79.9005 216.816 80.0602V84.3976C216.816 84.5573 216.945 84.6867 217.105 84.6867H223.78C223.816 84.6867 223.851 84.6802 223.884 84.6675C224.033 84.6103 224.108 84.443 224.051 84.2939C223.733 83.4685 223.367 82.7094 222.951 82.0165C222.888 81.9124 222.831 81.8091 222.778 81.7068C222.169 80.5185 220.945 79.7711 219.609 79.7711L217.105 79.7711V79.7711ZM201.763 95.6747C200.484 95.6747 199.447 94.639 199.447 93.3614C199.447 92.0838 200.484 91.0482 201.763 91.0482C203.042 91.0482 204.079 92.0838 204.079 93.3614C204.079 94.639 203.042 95.6747 201.763 95.6747ZM201.763 94.518C202.403 94.518 202.921 94.0002 202.921 93.3614C202.921 92.7226 202.403 92.2048 201.763 92.2048C201.124 92.2048 200.605 92.7226 200.605 93.3614C200.605 94.0002 201.124 94.518 201.763 94.518ZM219.71 95.6747C218.431 95.6747 217.395 94.639 217.395 93.3614C217.395 92.0838 218.431 91.0482 219.71 91.0482C220.989 91.0482 222.026 92.0838 222.026 93.3614C222.026 94.639 220.989 95.6747 219.71 95.6747ZM219.71 94.518C220.35 94.518 220.868 94.0002 220.868 93.3614C220.868 92.7226 220.35 92.2048 219.71 92.2048C219.071 92.2048 218.553 92.7226 218.553 93.3614C218.553 94.0002 219.071 94.518 219.71 94.518Z" fill="white"/>
<path d="M103.354 72.3995C61.3363 83.6581 66.2359 116.755 65.9376 138.848C39.2814 145.692 16.8525 162.988 24.4584 191.373C31.3855 217.226 58.3486 232.521 87.3666 225.237L87.3687 225.245L193.621 196.775L193.618 196.767C222.39 188.566 233.264 163.132 226.337 137.28C218.731 108.894 195.489 103.836 168.982 111.237C157.677 92.2536 145.372 61.1409 103.354 72.3995Z" fill="#65D58C"/>
</svg>
