<svg width="1531" height="1580" viewBox="0 0 1531 1580" fill="none" xmlns="http://www.w3.org/2000/svg">
    <path d="M103.231 961.987C88.3716 987.723 55.3881 996.514 29.5539 981.599C3.71968 966.683 -5.15917 933.723 9.69982 907.987C17.2125 894.975 33.2951 879.437 50.8847 869.099C59.6574 863.943 68.6753 860.158 77.0543 858.593C85.4349 857.028 92.9788 857.714 99.0539 861.221C105.129 864.728 109.495 870.919 112.329 878.959C115.164 886.998 116.395 896.7 116.316 906.876C116.158 927.278 110.743 948.975 103.231 961.987ZM143.18 1154.79C128.321 1180.53 95.3375 1189.32 69.5033 1174.4C43.669 1159.49 34.7902 1126.53 49.6492 1100.79C57.1618 1087.78 73.2444 1072.24 90.834 1061.9C99.6068 1056.75 108.625 1052.96 117.004 1051.4C125.384 1049.83 132.928 1050.52 139.003 1054.03C145.078 1057.53 149.444 1063.72 152.279 1071.76C155.113 1079.8 156.344 1089.51 156.265 1099.68C156.107 1120.08 150.693 1141.78 143.18 1154.79ZM212.327 819.027C227.186 793.29 260.169 784.5 286.003 799.415C311.837 814.331 320.716 847.29 305.857 873.027C298.345 886.039 282.262 901.577 264.672 911.915C255.9 917.071 246.882 920.855 238.503 922.421C230.122 923.986 222.578 923.3 216.503 919.793C210.428 916.285 206.062 910.095 203.228 902.054C200.394 894.015 199.162 884.314 199.241 874.138C199.399 853.736 204.814 832.039 212.327 819.027ZM253.142 1012.33C268.001 986.596 300.984 977.806 326.819 992.721C352.653 1007.64 361.532 1040.6 346.673 1066.33C339.16 1079.34 323.077 1094.88 305.488 1105.22C296.715 1110.38 287.697 1114.16 279.318 1115.73C270.938 1117.29 263.394 1116.61 257.319 1113.1C251.243 1109.59 246.878 1103.4 244.043 1095.36C241.209 1087.32 239.977 1077.62 240.056 1067.44C240.215 1047.04 245.629 1025.34 253.142 1012.33Z" stroke="white" stroke-width="5"/>
    <path d="M103.231 172.987C88.3716 198.723 55.3881 207.514 29.5539 192.598C3.71968 177.683 -5.15917 144.723 9.69982 118.987C17.2125 105.974 33.2951 90.4369 50.8847 80.0987C59.6574 74.9425 68.6753 71.1581 77.0543 69.593C85.4349 68.0276 92.9788 68.7133 99.0539 72.2208C105.129 75.7282 109.495 81.9186 112.329 89.9591C115.164 97.9981 116.395 107.7 116.316 117.876C116.158 138.278 110.743 159.974 103.231 172.987ZM143.18 365.792C128.321 391.529 95.3375 400.319 69.5033 385.404C43.669 370.489 34.7902 337.529 49.6492 311.792C57.1618 298.78 73.2444 283.243 90.834 272.904C99.6068 267.748 108.625 263.964 117.004 262.399C125.384 260.833 132.928 261.519 139.003 265.026C145.078 268.534 149.444 274.724 152.279 282.765C155.113 290.804 156.344 300.506 156.265 310.681C156.107 331.083 150.693 352.78 143.18 365.792ZM212.327 30.0267C227.186 4.29019 260.169 -4.5004 286.003 10.415C311.837 25.3304 320.716 58.2902 305.857 84.0267C298.345 97.039 282.262 112.576 264.672 122.915C255.9 128.071 246.882 131.855 238.503 133.42C230.122 134.986 222.578 134.3 216.503 130.793C210.428 127.285 206.062 121.095 203.228 113.054C200.394 105.015 199.162 95.3133 199.241 85.1378C199.399 64.7357 204.814 43.039 212.327 30.0267ZM253.142 223.332C268.001 197.596 300.984 188.805 326.819 203.721C352.653 218.636 361.532 251.596 346.673 277.332C339.16 290.345 323.077 305.882 305.488 316.22C296.715 321.376 287.697 325.161 279.318 326.726C270.938 328.291 263.394 327.606 257.319 324.098C251.243 320.591 246.878 314.4 244.043 306.36C241.209 298.321 239.977 288.619 240.056 278.443C240.215 258.041 245.629 236.345 253.142 223.332Z" stroke="white" stroke-width="5"/>
    <path d="M886.231 961.987C871.372 987.723 838.388 996.514 812.554 981.599C786.72 966.683 777.841 933.723 792.7 907.987C800.212 894.975 816.295 879.437 833.885 869.099C842.657 863.943 851.675 860.158 860.054 858.593C868.435 857.028 875.979 857.714 882.054 861.221C888.129 864.728 892.495 870.919 895.329 878.959C898.164 886.998 899.395 896.7 899.316 906.876C899.158 927.278 893.743 948.975 886.231 961.987ZM926.18 1154.79C911.321 1180.53 878.337 1189.32 852.503 1174.4C826.669 1159.49 817.79 1126.53 832.649 1100.79C840.162 1087.78 856.244 1072.24 873.834 1061.9C882.607 1056.75 891.625 1052.96 900.004 1051.4C908.384 1049.83 915.928 1050.52 922.003 1054.03C928.078 1057.53 932.444 1063.72 935.279 1071.76C938.113 1079.8 939.344 1089.51 939.265 1099.68C939.107 1120.08 933.693 1141.78 926.18 1154.79ZM995.327 819.027C1010.19 793.29 1043.17 784.5 1069 799.415C1094.84 814.331 1103.72 847.29 1088.86 873.027C1081.34 886.039 1065.26 901.577 1047.67 911.915C1038.9 917.071 1029.88 920.855 1021.5 922.421C1013.12 923.986 1005.58 923.3 999.503 919.793C993.428 916.285 989.062 910.095 986.228 902.054C983.394 894.015 982.162 884.314 982.241 874.138C982.399 853.736 987.814 832.039 995.327 819.027ZM1036.14 1012.33C1051 986.596 1083.98 977.806 1109.82 992.721C1135.65 1007.64 1144.53 1040.6 1129.67 1066.33C1122.16 1079.34 1106.08 1094.88 1088.49 1105.22C1079.71 1110.38 1070.7 1114.16 1062.32 1115.73C1053.94 1117.29 1046.39 1116.61 1040.32 1113.1C1034.24 1109.59 1029.88 1103.4 1027.04 1095.36C1024.21 1087.32 1022.98 1077.62 1023.06 1067.44C1023.21 1047.04 1028.63 1025.34 1036.14 1012.33Z" stroke="white" stroke-width="5"/>
    <path d="M886.231 172.987C871.372 198.723 838.388 207.514 812.554 192.598C786.72 177.683 777.841 144.723 792.7 118.987C800.212 105.974 816.295 90.4369 833.885 80.0987C842.657 74.9425 851.675 71.1581 860.054 69.593C868.435 68.0276 875.979 68.7133 882.054 72.2208C888.129 75.7282 892.495 81.9186 895.329 89.9591C898.164 97.9981 899.395 107.7 899.316 117.876C899.158 138.278 893.743 159.974 886.231 172.987ZM926.18 365.792C911.321 391.529 878.337 400.319 852.503 385.404C826.669 370.489 817.79 337.529 832.649 311.792C840.162 298.78 856.244 283.243 873.834 272.904C882.607 267.748 891.625 263.964 900.004 262.399C908.384 260.833 915.928 261.519 922.003 265.026C928.078 268.534 932.444 274.724 935.279 282.765C938.113 290.804 939.344 300.506 939.265 310.681C939.107 331.083 933.693 352.78 926.18 365.792ZM995.327 30.0267C1010.19 4.29019 1043.17 -4.5004 1069 10.415C1094.84 25.3304 1103.72 58.2902 1088.86 84.0267C1081.34 97.039 1065.26 112.576 1047.67 122.915C1038.9 128.071 1029.88 131.855 1021.5 133.42C1013.12 134.986 1005.58 134.3 999.503 130.793C993.428 127.285 989.062 121.095 986.228 113.054C983.394 105.015 982.162 95.3133 982.241 85.1378C982.399 64.7357 987.814 43.039 995.327 30.0267ZM1036.14 223.332C1051 197.596 1083.98 188.805 1109.82 203.721C1135.65 218.636 1144.53 251.596 1129.67 277.332C1122.16 290.345 1106.08 305.882 1088.49 316.22C1079.71 321.376 1070.7 325.161 1062.32 326.726C1053.94 328.291 1046.39 327.606 1040.32 324.098C1034.24 320.591 1029.88 314.4 1027.04 306.36C1024.21 298.321 1022.98 288.619 1023.06 278.443C1023.21 258.041 1028.63 236.345 1036.14 223.332Z" stroke="white" stroke-width="5"/>
    <path d="M103.231 1356.99C88.3716 1382.72 55.3881 1391.51 29.5539 1376.6C3.71968 1361.68 -5.15917 1328.72 9.69982 1302.99C17.2125 1289.97 33.2951 1274.44 50.8847 1264.1C59.6574 1258.94 68.6753 1255.16 77.0543 1253.59C85.4349 1252.03 92.9788 1252.71 99.0539 1256.22C105.129 1259.73 109.495 1265.92 112.329 1273.96C115.164 1282 116.395 1291.7 116.316 1301.88C116.158 1322.28 110.743 1343.97 103.231 1356.99ZM143.18 1549.79C128.321 1575.53 95.3375 1584.32 69.5033 1569.4C43.669 1554.49 34.7902 1521.53 49.6492 1495.79C57.1618 1482.78 73.2444 1467.24 90.834 1456.9C99.6068 1451.75 108.625 1447.96 117.004 1446.4C125.384 1444.83 132.928 1445.52 139.003 1449.03C145.078 1452.53 149.444 1458.72 152.279 1466.76C155.113 1474.8 156.344 1484.51 156.265 1494.68C156.107 1515.08 150.693 1536.78 143.18 1549.79ZM212.327 1214.03C227.186 1188.29 260.169 1179.5 286.003 1194.42C311.837 1209.33 320.716 1242.29 305.857 1268.03C298.345 1281.04 282.262 1296.58 264.672 1306.91C255.9 1312.07 246.882 1315.86 238.503 1317.42C230.122 1318.99 222.578 1318.3 216.503 1314.79C210.428 1311.29 206.062 1305.09 203.228 1297.05C200.394 1289.02 199.162 1279.31 199.241 1269.14C199.399 1248.74 204.814 1227.04 212.327 1214.03ZM253.142 1407.33C268.001 1381.6 300.984 1372.81 326.819 1387.72C352.653 1402.64 361.532 1435.6 346.673 1461.33C339.16 1474.34 323.077 1489.88 305.488 1500.22C296.715 1505.38 287.697 1509.16 279.318 1510.73C270.938 1512.29 263.394 1511.61 257.319 1508.1C251.243 1504.59 246.878 1498.4 244.043 1490.36C241.209 1482.32 239.977 1472.62 240.056 1462.44C240.215 1442.04 245.629 1420.34 253.142 1407.33Z" stroke="white" stroke-width="5"/>
    <path d="M103.231 567.987C88.3716 593.723 55.3881 602.514 29.5539 587.599C3.71968 572.683 -5.15917 539.723 9.69982 513.987C17.2125 500.975 33.2951 485.437 50.8847 475.099C59.6574 469.943 68.6753 466.158 77.0543 464.593C85.4349 463.028 92.9788 463.714 99.0539 467.221C105.129 470.728 109.495 476.919 112.329 484.959C115.164 492.998 116.395 502.7 116.316 512.876C116.158 533.278 110.743 554.975 103.231 567.987ZM143.18 760.793C128.321 786.529 95.3375 795.32 69.5033 780.404C43.669 765.489 34.7902 732.529 49.6492 706.793C57.1618 693.78 73.2444 678.243 90.834 667.905C99.6068 662.748 108.625 658.964 117.004 657.399C125.384 655.834 132.928 656.519 139.003 660.027C145.078 663.534 149.444 669.724 152.279 677.765C155.113 685.804 156.344 695.506 156.265 705.681C156.107 726.084 150.693 747.78 143.18 760.793ZM212.327 425.027C227.186 399.29 260.169 390.5 286.003 405.415C311.837 420.331 320.716 453.29 305.857 479.027C298.345 492.039 282.262 507.577 264.672 517.915C255.9 523.071 246.882 526.855 238.503 528.421C230.122 529.986 222.578 529.3 216.503 525.793C210.428 522.285 206.062 516.095 203.228 508.054C200.394 500.015 199.162 490.314 199.241 480.138C199.399 459.736 204.814 438.039 212.327 425.027ZM253.142 618.333C268.001 592.596 300.984 583.806 326.819 598.721C352.653 613.636 361.532 646.596 346.673 672.333C339.16 685.345 323.077 700.882 305.488 711.221C296.715 716.377 287.697 720.161 279.318 721.726C270.938 723.292 263.394 722.606 257.319 719.098C251.243 715.591 246.878 709.401 244.043 701.36C241.209 693.321 239.977 683.619 240.056 673.444C240.215 653.042 245.629 631.345 253.142 618.333Z" stroke="white" stroke-width="5"/>
    <path d="M886.231 1356.99C871.372 1382.72 838.388 1391.51 812.554 1376.6C786.72 1361.68 777.841 1328.72 792.7 1302.99C800.212 1289.97 816.295 1274.44 833.885 1264.1C842.657 1258.94 851.675 1255.16 860.054 1253.59C868.435 1252.03 875.979 1252.71 882.054 1256.22C888.129 1259.73 892.495 1265.92 895.329 1273.96C898.164 1282 899.395 1291.7 899.316 1301.88C899.158 1322.28 893.743 1343.97 886.231 1356.99ZM926.18 1549.79C911.321 1575.53 878.337 1584.32 852.503 1569.4C826.669 1554.49 817.79 1521.53 832.649 1495.79C840.162 1482.78 856.244 1467.24 873.834 1456.9C882.607 1451.75 891.625 1447.96 900.004 1446.4C908.384 1444.83 915.928 1445.52 922.003 1449.03C928.078 1452.53 932.444 1458.72 935.279 1466.76C938.113 1474.8 939.344 1484.51 939.265 1494.68C939.107 1515.08 933.693 1536.78 926.18 1549.79ZM995.327 1214.03C1010.19 1188.29 1043.17 1179.5 1069 1194.42C1094.84 1209.33 1103.72 1242.29 1088.86 1268.03C1081.34 1281.04 1065.26 1296.58 1047.67 1306.91C1038.9 1312.07 1029.88 1315.86 1021.5 1317.42C1013.12 1318.99 1005.58 1318.3 999.503 1314.79C993.428 1311.29 989.062 1305.09 986.228 1297.05C983.394 1289.02 982.162 1279.31 982.241 1269.14C982.399 1248.74 987.814 1227.04 995.327 1214.03ZM1036.14 1407.33C1051 1381.6 1083.98 1372.81 1109.82 1387.72C1135.65 1402.64 1144.53 1435.6 1129.67 1461.33C1122.16 1474.34 1106.08 1489.88 1088.49 1500.22C1079.71 1505.38 1070.7 1509.16 1062.32 1510.73C1053.94 1512.29 1046.39 1511.61 1040.32 1508.1C1034.24 1504.59 1029.88 1498.4 1027.04 1490.36C1024.21 1482.32 1022.98 1472.62 1023.06 1462.44C1023.21 1442.04 1028.63 1420.34 1036.14 1407.33Z" stroke="white" stroke-width="5"/>
    <path d="M886.231 567.987C871.372 593.723 838.388 602.514 812.554 587.599C786.72 572.683 777.841 539.723 792.7 513.987C800.212 500.975 816.295 485.437 833.885 475.099C842.657 469.943 851.675 466.158 860.054 464.593C868.435 463.028 875.979 463.714 882.054 467.221C888.129 470.728 892.495 476.919 895.329 484.959C898.164 492.998 899.395 502.7 899.316 512.876C899.158 533.278 893.743 554.975 886.231 567.987ZM926.18 760.793C911.321 786.529 878.337 795.32 852.503 780.404C826.669 765.489 817.79 732.529 832.649 706.793C840.162 693.78 856.244 678.243 873.834 667.905C882.607 662.748 891.625 658.964 900.004 657.399C908.384 655.834 915.928 656.519 922.003 660.027C928.078 663.534 932.444 669.724 935.279 677.765C938.113 685.804 939.344 695.506 939.265 705.681C939.107 726.084 933.693 747.78 926.18 760.793ZM995.327 425.027C1010.19 399.29 1043.17 390.5 1069 405.415C1094.84 420.331 1103.72 453.29 1088.86 479.027C1081.34 492.039 1065.26 507.577 1047.67 517.915C1038.9 523.071 1029.88 526.855 1021.5 528.421C1013.12 529.986 1005.58 529.3 999.503 525.793C993.428 522.285 989.062 516.095 986.228 508.054C983.394 500.015 982.162 490.314 982.241 480.138C982.399 459.736 987.814 438.039 995.327 425.027ZM1036.14 618.333C1051 592.596 1083.98 583.806 1109.82 598.721C1135.65 613.636 1144.53 646.596 1129.67 672.333C1122.16 685.345 1106.08 700.882 1088.49 711.221C1079.71 716.377 1070.7 720.161 1062.32 721.726C1053.94 723.292 1046.39 722.606 1040.32 719.098C1034.24 715.591 1029.88 709.401 1027.04 701.36C1024.21 693.321 1022.98 683.619 1023.06 673.444C1023.21 653.042 1028.63 631.345 1036.14 618.333Z" stroke="white" stroke-width="5"/>
    <path d="M494.603 961.336C479.744 987.073 446.761 995.863 420.926 980.948C395.092 966.033 386.213 933.073 401.072 907.336C408.585 894.324 424.668 878.786 442.257 868.448C451.03 863.292 460.048 859.508 468.427 857.943C476.807 856.377 484.351 857.063 490.426 860.57C496.501 864.078 500.867 870.268 503.702 878.309C506.536 886.348 507.767 896.05 507.688 906.225C507.53 926.627 502.116 948.324 494.603 961.336ZM534.552 1154.14C519.693 1179.88 486.71 1188.67 460.876 1173.75C435.041 1158.84 426.163 1125.88 441.022 1100.14C448.534 1087.13 464.617 1071.59 482.206 1061.25C490.979 1056.1 499.997 1052.31 508.376 1050.75C516.757 1049.18 524.301 1049.87 530.376 1053.38C536.451 1056.88 540.817 1063.07 543.651 1071.11C546.485 1079.15 547.717 1088.86 547.638 1099.03C547.479 1119.43 542.065 1141.13 534.552 1154.14ZM603.699 818.376C618.558 792.64 651.541 783.849 677.376 798.765C703.21 813.68 712.089 846.64 697.23 872.376C689.717 885.389 673.634 900.926 656.045 911.264C647.272 916.42 638.254 920.205 629.875 921.77C621.495 923.335 613.951 922.65 607.876 919.142C601.801 915.635 597.435 909.444 594.6 901.404C591.766 893.365 590.535 883.663 590.613 873.487C590.772 853.085 596.186 831.389 603.699 818.376ZM644.514 1011.68C659.373 985.945 692.357 977.155 718.191 992.07C744.025 1006.99 752.904 1039.95 738.045 1065.68C730.532 1078.69 714.45 1094.23 696.86 1104.57C688.087 1109.73 679.07 1113.51 670.691 1115.08C662.31 1116.64 654.766 1115.96 648.691 1112.45C642.616 1108.94 638.25 1102.75 635.415 1094.71C632.581 1086.67 631.35 1076.97 631.429 1066.79C631.587 1046.39 637.002 1024.69 644.514 1011.68Z" stroke="white" stroke-width="5"/>
    <path d="M494.603 172.336C479.744 198.073 446.761 206.863 420.926 191.948C395.092 177.033 386.213 144.073 401.072 118.336C408.585 105.324 424.668 89.7865 442.257 79.4483C451.03 74.2921 460.048 70.5077 468.427 68.9426C476.807 67.3772 484.351 68.063 490.426 71.5704C496.501 75.0779 500.867 81.2682 503.702 89.3087C506.536 97.3477 507.767 107.05 507.688 117.225C507.53 137.627 502.116 159.324 494.603 172.336ZM534.552 365.142C519.693 390.878 486.71 399.669 460.876 384.754C435.041 369.838 426.163 336.878 441.022 311.142C448.534 298.13 464.617 282.592 482.206 272.254C490.979 267.098 499.997 263.313 508.376 261.748C516.757 260.183 524.301 260.869 530.376 264.376C536.451 267.884 540.817 274.074 543.651 282.114C546.485 290.153 547.717 299.855 547.638 310.031C547.479 330.433 542.065 352.13 534.552 365.142ZM603.699 29.3763C618.558 3.6398 651.541 -5.15079 677.376 9.76461C703.21 24.68 712.089 57.6398 697.23 83.3763C689.717 96.3886 673.634 111.926 656.045 122.264C647.272 127.42 638.254 131.205 629.875 132.77C621.495 134.335 613.951 133.65 607.876 130.142C601.801 126.635 597.435 120.444 594.6 112.404C591.766 104.365 590.535 94.6629 590.613 84.4874C590.772 64.0853 596.186 42.3886 603.699 29.3763ZM644.514 222.682C659.373 196.945 692.357 188.155 718.191 203.07C744.025 217.986 752.904 250.945 738.045 276.682C730.532 289.694 714.45 305.232 696.86 315.57C688.087 320.726 679.07 324.51 670.691 326.076C662.31 327.641 654.766 326.955 648.691 323.448C642.616 319.94 638.25 313.75 635.415 305.71C632.581 297.671 631.35 287.969 631.429 277.793C631.587 257.391 637.002 235.694 644.514 222.682Z" stroke="white" stroke-width="5"/>
    <path d="M1277.6 961.336C1262.74 987.073 1229.76 995.863 1203.93 980.948C1178.09 966.033 1169.21 933.073 1184.07 907.336C1191.59 894.324 1207.67 878.786 1225.26 868.448C1234.03 863.292 1243.05 859.508 1251.43 857.943C1259.81 856.377 1267.35 857.063 1273.43 860.57C1279.5 864.078 1283.87 870.268 1286.7 878.309C1289.54 886.348 1290.77 896.05 1290.69 906.225C1290.53 926.627 1285.12 948.324 1277.6 961.336ZM1317.55 1154.14C1302.69 1179.88 1269.71 1188.67 1243.88 1173.75C1218.04 1158.84 1209.16 1125.88 1224.02 1100.14C1231.53 1087.13 1247.62 1071.59 1265.21 1061.25C1273.98 1056.1 1283 1052.31 1291.38 1050.75C1299.76 1049.18 1307.3 1049.87 1313.38 1053.38C1319.45 1056.88 1323.82 1063.07 1326.65 1071.11C1329.49 1079.15 1330.72 1088.86 1330.64 1099.03C1330.48 1119.43 1325.07 1141.13 1317.55 1154.14ZM1386.7 818.376C1401.56 792.64 1434.54 783.849 1460.38 798.765C1486.21 813.68 1495.09 846.64 1480.23 872.376C1472.72 885.389 1456.63 900.926 1439.05 911.264C1430.27 916.42 1421.25 920.205 1412.88 921.77C1404.49 923.335 1396.95 922.65 1390.88 919.142C1384.8 915.635 1380.43 909.444 1377.6 901.404C1374.77 893.365 1373.53 883.663 1373.61 873.487C1373.77 853.085 1379.19 831.389 1386.7 818.376ZM1427.51 1011.68C1442.37 985.945 1475.36 977.155 1501.19 992.07C1527.03 1006.99 1535.9 1039.95 1521.05 1065.68C1513.53 1078.69 1497.45 1094.23 1479.86 1104.57C1471.09 1109.73 1462.07 1113.51 1453.69 1115.08C1445.31 1116.64 1437.77 1115.96 1431.69 1112.45C1425.62 1108.94 1421.25 1102.75 1418.42 1094.71C1415.58 1086.67 1414.35 1076.97 1414.43 1066.79C1414.59 1046.39 1420 1024.69 1427.51 1011.68Z" stroke="white" stroke-width="5"/>
    <path d="M1277.6 172.336C1262.74 198.073 1229.76 206.863 1203.93 191.948C1178.09 177.033 1169.21 144.073 1184.07 118.336C1191.59 105.324 1207.67 89.7865 1225.26 79.4483C1234.03 74.2921 1243.05 70.5077 1251.43 68.9426C1259.81 67.3772 1267.35 68.063 1273.43 71.5704C1279.5 75.0779 1283.87 81.2682 1286.7 89.3087C1289.54 97.3477 1290.77 107.05 1290.69 117.225C1290.53 137.627 1285.12 159.324 1277.6 172.336ZM1317.55 365.142C1302.69 390.878 1269.71 399.669 1243.88 384.754C1218.04 369.838 1209.16 336.878 1224.02 311.142C1231.53 298.13 1247.62 282.592 1265.21 272.254C1273.98 267.098 1283 263.313 1291.38 261.748C1299.76 260.183 1307.3 260.869 1313.38 264.376C1319.45 267.884 1323.82 274.074 1326.65 282.114C1329.49 290.153 1330.72 299.855 1330.64 310.031C1330.48 330.433 1325.07 352.13 1317.55 365.142ZM1386.7 29.3763C1401.56 3.6398 1434.54 -5.15079 1460.38 9.76461C1486.21 24.68 1495.09 57.6398 1480.23 83.3763C1472.72 96.3886 1456.63 111.926 1439.05 122.264C1430.27 127.42 1421.25 131.205 1412.88 132.77C1404.49 134.335 1396.95 133.65 1390.88 130.142C1384.8 126.635 1380.43 120.444 1377.6 112.404C1374.77 104.365 1373.53 94.6629 1373.61 84.4874C1373.77 64.0853 1379.19 42.3886 1386.7 29.3763ZM1427.51 222.682C1442.37 196.945 1475.36 188.155 1501.19 203.07C1527.03 217.986 1535.9 250.945 1521.05 276.682C1513.53 289.694 1497.45 305.232 1479.86 315.57C1471.09 320.726 1462.07 324.51 1453.69 326.076C1445.31 327.641 1437.77 326.955 1431.69 323.448C1425.62 319.94 1421.25 313.75 1418.42 305.71C1415.58 297.671 1414.35 287.969 1414.43 277.793C1414.59 257.391 1420 235.694 1427.51 222.682Z" stroke="white" stroke-width="5"/>
    <path d="M494.603 1356.34C479.744 1382.07 446.761 1390.86 420.926 1375.95C395.092 1361.03 386.213 1328.07 401.072 1302.34C408.585 1289.32 424.668 1273.79 442.257 1263.45C451.03 1258.29 460.048 1254.51 468.427 1252.94C476.807 1251.38 484.351 1252.06 490.426 1255.57C496.501 1259.08 500.867 1265.27 503.702 1273.31C506.536 1281.35 507.767 1291.05 507.688 1301.23C507.53 1321.63 502.116 1343.32 494.603 1356.34ZM534.552 1549.14C519.693 1574.88 486.71 1583.67 460.876 1568.75C435.041 1553.84 426.163 1520.88 441.022 1495.14C448.534 1482.13 464.617 1466.59 482.206 1456.25C490.979 1451.1 499.997 1447.31 508.376 1445.75C516.757 1444.18 524.301 1444.87 530.376 1448.38C536.451 1451.88 540.817 1458.07 543.651 1466.11C546.485 1474.15 547.717 1483.86 547.638 1494.03C547.479 1514.43 542.065 1536.13 534.552 1549.14ZM603.699 1213.38C618.558 1187.64 651.541 1178.85 677.376 1193.76C703.21 1208.68 712.089 1241.64 697.23 1267.38C689.717 1280.39 673.634 1295.93 656.045 1306.26C647.272 1311.42 638.254 1315.2 629.875 1316.77C621.495 1318.34 613.951 1317.65 607.876 1314.14C601.801 1310.63 597.435 1304.44 594.6 1296.4C591.766 1288.36 590.535 1278.66 590.613 1268.49C590.772 1248.09 596.186 1226.39 603.699 1213.38ZM644.514 1406.68C659.373 1380.95 692.357 1372.15 718.191 1387.07C744.025 1401.99 752.904 1434.95 738.045 1460.68C730.532 1473.69 714.45 1489.23 696.86 1499.57C688.087 1504.73 679.07 1508.51 670.691 1510.08C662.31 1511.64 654.766 1510.96 648.691 1507.45C642.616 1503.94 638.25 1497.75 635.415 1489.71C632.581 1481.67 631.35 1471.97 631.429 1461.79C631.587 1441.39 637.002 1419.69 644.514 1406.68Z" stroke="white" stroke-width="5"/>
    <path d="M494.603 567.336C479.744 593.073 446.761 601.863 420.926 586.948C395.092 572.033 386.213 539.073 401.072 513.336C408.585 500.324 424.668 484.786 442.257 474.448C451.03 469.292 460.048 465.508 468.427 463.943C476.807 462.377 484.351 463.063 490.426 466.57C496.501 470.078 500.867 476.268 503.702 484.309C506.536 492.348 507.767 502.05 507.688 512.225C507.53 532.627 502.116 554.324 494.603 567.336ZM534.552 760.142C519.693 785.878 486.71 794.669 460.876 779.754C435.041 764.838 426.163 731.878 441.022 706.142C448.534 693.13 464.617 677.592 482.206 667.254C490.979 662.098 499.997 658.313 508.376 656.748C516.757 655.183 524.301 655.869 530.376 659.376C536.451 662.884 540.817 669.074 543.651 677.114C546.485 685.153 547.717 694.855 547.638 705.031C547.479 725.433 542.065 747.13 534.552 760.142ZM603.699 424.376C618.558 398.64 651.541 389.849 677.376 404.765C703.21 419.68 712.089 452.64 697.23 478.376C689.717 491.389 673.634 506.926 656.045 517.264C647.272 522.42 638.254 526.205 629.875 527.77C621.495 529.335 613.951 528.65 607.876 525.142C601.801 521.635 597.435 515.444 594.6 507.404C591.766 499.365 590.535 489.663 590.613 479.487C590.772 459.085 596.186 437.389 603.699 424.376ZM644.514 617.682C659.373 591.945 692.357 583.155 718.191 598.07C744.025 612.986 752.904 645.945 738.045 671.682C730.532 684.694 714.45 700.232 696.86 710.57C688.087 715.726 679.07 719.51 670.691 721.076C662.31 722.641 654.766 721.955 648.691 718.448C642.616 714.94 638.25 708.75 635.415 700.71C632.581 692.671 631.35 682.969 631.429 672.793C631.587 652.391 637.002 630.694 644.514 617.682Z" stroke="white" stroke-width="5"/>
    <path d="M1277.6 1356.34C1262.74 1382.07 1229.76 1390.86 1203.93 1375.95C1178.09 1361.03 1169.21 1328.07 1184.07 1302.34C1191.59 1289.32 1207.67 1273.79 1225.26 1263.45C1234.03 1258.29 1243.05 1254.51 1251.43 1252.94C1259.81 1251.38 1267.35 1252.06 1273.43 1255.57C1279.5 1259.08 1283.87 1265.27 1286.7 1273.31C1289.54 1281.35 1290.77 1291.05 1290.69 1301.23C1290.53 1321.63 1285.12 1343.32 1277.6 1356.34ZM1317.55 1549.14C1302.69 1574.88 1269.71 1583.67 1243.88 1568.75C1218.04 1553.84 1209.16 1520.88 1224.02 1495.14C1231.53 1482.13 1247.62 1466.59 1265.21 1456.25C1273.98 1451.1 1283 1447.31 1291.38 1445.75C1299.76 1444.18 1307.3 1444.87 1313.38 1448.38C1319.45 1451.88 1323.82 1458.07 1326.65 1466.11C1329.49 1474.15 1330.72 1483.86 1330.64 1494.03C1330.48 1514.43 1325.07 1536.13 1317.55 1549.14ZM1386.7 1213.38C1401.56 1187.64 1434.54 1178.85 1460.38 1193.76C1486.21 1208.68 1495.09 1241.64 1480.23 1267.38C1472.72 1280.39 1456.63 1295.93 1439.05 1306.26C1430.27 1311.42 1421.25 1315.2 1412.88 1316.77C1404.49 1318.34 1396.95 1317.65 1390.88 1314.14C1384.8 1310.63 1380.43 1304.44 1377.6 1296.4C1374.77 1288.36 1373.53 1278.66 1373.61 1268.49C1373.77 1248.09 1379.19 1226.39 1386.7 1213.38ZM1427.51 1406.68C1442.37 1380.95 1475.36 1372.15 1501.19 1387.07C1527.03 1401.99 1535.9 1434.95 1521.05 1460.68C1513.53 1473.69 1497.45 1489.23 1479.86 1499.57C1471.09 1504.73 1462.07 1508.51 1453.69 1510.08C1445.31 1511.64 1437.77 1510.96 1431.69 1507.45C1425.62 1503.94 1421.25 1497.75 1418.42 1489.71C1415.58 1481.67 1414.35 1471.97 1414.43 1461.79C1414.59 1441.39 1420 1419.69 1427.51 1406.68Z" stroke="white" stroke-width="5"/>
    <path d="M1277.6 567.336C1262.74 593.073 1229.76 601.863 1203.93 586.948C1178.09 572.033 1169.21 539.073 1184.07 513.336C1191.59 500.324 1207.67 484.786 1225.26 474.448C1234.03 469.292 1243.05 465.508 1251.43 463.943C1259.81 462.377 1267.35 463.063 1273.43 466.57C1279.5 470.078 1283.87 476.268 1286.7 484.309C1289.54 492.348 1290.77 502.05 1290.69 512.225C1290.53 532.627 1285.12 554.324 1277.6 567.336ZM1317.55 760.142C1302.69 785.878 1269.71 794.669 1243.88 779.754C1218.04 764.838 1209.16 731.878 1224.02 706.142C1231.53 693.13 1247.62 677.592 1265.21 667.254C1273.98 662.098 1283 658.313 1291.38 656.748C1299.76 655.183 1307.3 655.869 1313.38 659.376C1319.45 662.884 1323.82 669.074 1326.65 677.114C1329.49 685.153 1330.72 694.855 1330.64 705.031C1330.48 725.433 1325.07 747.13 1317.55 760.142ZM1386.7 424.376C1401.56 398.64 1434.54 389.849 1460.38 404.765C1486.21 419.68 1495.09 452.64 1480.23 478.376C1472.72 491.389 1456.63 506.926 1439.05 517.264C1430.27 522.42 1421.25 526.205 1412.88 527.77C1404.49 529.335 1396.95 528.65 1390.88 525.142C1384.8 521.635 1380.43 515.444 1377.6 507.404C1374.77 499.365 1373.53 489.663 1373.61 479.487C1373.77 459.085 1379.19 437.389 1386.7 424.376ZM1427.51 617.682C1442.37 591.945 1475.36 583.155 1501.19 598.07C1527.03 612.986 1535.9 645.945 1521.05 671.682C1513.53 684.694 1497.45 700.232 1479.86 710.57C1471.09 715.726 1462.07 719.51 1453.69 721.076C1445.31 722.641 1437.77 721.955 1431.69 718.448C1425.62 714.94 1421.25 708.75 1418.42 700.71C1415.58 692.671 1414.35 682.969 1414.43 672.793C1414.59 652.391 1420 630.694 1427.51 617.682Z" stroke="white" stroke-width="5"/>
</svg>
